<mxfile host="app.diagrams.net" agent="Mozilla/5.0 (Windows NT 10.0; Win64; x64; rv:143.0) Gecko/20100101 Firefox/143.0" version="28.2.3">
  <diagram name="PÃ¡gina-1" id="cs70ueodG-1XIhkzWRdm">
    <mxGraphModel dx="983" dy="551" grid="1" gridSize="10" guides="1" tooltips="1" connect="1" arrows="1" fold="1" page="1" pageScale="1" pageWidth="827" pageHeight="1169" math="0" shadow="0">
      <root>
        <mxCell id="0" />
        <mxCell id="1" parent="0" />
        <mxCell id="QsYOaS02WV_Xm4vxUOQe-34" value="" style="rounded=0;whiteSpace=wrap;html=1;" vertex="1" parent="1">
          <mxGeometry x="190" y="70" width="390" height="280" as="geometry" />
        </mxCell>
        <mxCell id="QsYOaS02WV_Xm4vxUOQe-1" value="&lt;div&gt;Administrador&lt;/div&gt;&lt;div&gt;de la APP&lt;/div&gt;" style="shape=umlActor;verticalLabelPosition=bottom;verticalAlign=top;html=1;outlineConnect=0;" vertex="1" parent="1">
          <mxGeometry x="130" y="85" width="30" height="60" as="geometry" />
        </mxCell>
        <mxCell id="QsYOaS02WV_Xm4vxUOQe-5" value="" style="edgeStyle=orthogonalEdgeStyle;rounded=0;orthogonalLoop=1;jettySize=auto;html=1;dashed=1;" edge="1" parent="1" source="QsYOaS02WV_Xm4vxUOQe-2" target="QsYOaS02WV_Xm4vxUOQe-4">
          <mxGeometry relative="1" as="geometry" />
        </mxCell>
        <mxCell id="QsYOaS02WV_Xm4vxUOQe-7" value="&lt;font style=&quot;font-size: 9px;&quot;&gt;Text&lt;/font&gt;" style="edgeLabel;html=1;align=center;verticalAlign=middle;resizable=0;points=[];" vertex="1" connectable="0" parent="QsYOaS02WV_Xm4vxUOQe-5">
          <mxGeometry x="-0.2216" relative="1" as="geometry">
            <mxPoint as="offset" />
          </mxGeometry>
        </mxCell>
        <mxCell id="QsYOaS02WV_Xm4vxUOQe-8" value="&lt;font style=&quot;font-size: 9px;&quot;&gt;include&lt;/font&gt;" style="edgeLabel;html=1;align=center;verticalAlign=middle;resizable=0;points=[];" vertex="1" connectable="0" parent="QsYOaS02WV_Xm4vxUOQe-5">
          <mxGeometry x="-0.1353" y="-3" relative="1" as="geometry">
            <mxPoint as="offset" />
          </mxGeometry>
        </mxCell>
        <mxCell id="QsYOaS02WV_Xm4vxUOQe-2" value="Gestionar usuarios" style="rounded=1;whiteSpace=wrap;html=1;arcSize=50;" vertex="1" parent="1">
          <mxGeometry x="230" y="100" width="120" height="30" as="geometry" />
        </mxCell>
        <mxCell id="QsYOaS02WV_Xm4vxUOQe-4" value="Listar usuarios" style="rounded=1;whiteSpace=wrap;html=1;arcSize=50;" vertex="1" parent="1">
          <mxGeometry x="430" y="100" width="120" height="30" as="geometry" />
        </mxCell>
        <mxCell id="QsYOaS02WV_Xm4vxUOQe-6" value="Sistema" style="shape=umlActor;verticalLabelPosition=bottom;verticalAlign=top;html=1;outlineConnect=0;" vertex="1" parent="1">
          <mxGeometry x="620" y="85" width="30" height="60" as="geometry" />
        </mxCell>
        <mxCell id="QsYOaS02WV_Xm4vxUOQe-17" style="edgeStyle=orthogonalEdgeStyle;rounded=0;orthogonalLoop=1;jettySize=auto;html=1;exitX=0.25;exitY=0;exitDx=0;exitDy=0;entryX=0.833;entryY=1;entryDx=0;entryDy=0;dashed=1;entryPerimeter=0;" edge="1" parent="1" source="QsYOaS02WV_Xm4vxUOQe-10" target="QsYOaS02WV_Xm4vxUOQe-2">
          <mxGeometry relative="1" as="geometry">
            <Array as="points">
              <mxPoint x="460" y="150" />
              <mxPoint x="330" y="150" />
            </Array>
          </mxGeometry>
        </mxCell>
        <mxCell id="QsYOaS02WV_Xm4vxUOQe-20" value="&lt;font style=&quot;font-size: 9px;&quot;&gt;extend&lt;/font&gt;" style="edgeLabel;html=1;align=center;verticalAlign=middle;resizable=0;points=[];" vertex="1" connectable="0" parent="QsYOaS02WV_Xm4vxUOQe-17">
          <mxGeometry x="-0.128" relative="1" as="geometry">
            <mxPoint as="offset" />
          </mxGeometry>
        </mxCell>
        <mxCell id="QsYOaS02WV_Xm4vxUOQe-10" value="Buscar usuarios" style="rounded=1;whiteSpace=wrap;html=1;arcSize=50;" vertex="1" parent="1">
          <mxGeometry x="410" y="170" width="120" height="30" as="geometry" />
        </mxCell>
        <mxCell id="QsYOaS02WV_Xm4vxUOQe-15" style="edgeStyle=orthogonalEdgeStyle;rounded=0;orthogonalLoop=1;jettySize=auto;html=1;exitX=0.17;exitY=-0.01;exitDx=0;exitDy=0;entryX=0.587;entryY=0.99;entryDx=0;entryDy=0;entryPerimeter=0;dashed=1;exitPerimeter=0;" edge="1" parent="1" source="QsYOaS02WV_Xm4vxUOQe-11" target="QsYOaS02WV_Xm4vxUOQe-2">
          <mxGeometry relative="1" as="geometry">
            <mxPoint x="300" y="235" as="sourcePoint" />
            <mxPoint x="270" y="145" as="targetPoint" />
            <Array as="points" />
          </mxGeometry>
        </mxCell>
        <mxCell id="QsYOaS02WV_Xm4vxUOQe-21" value="&lt;font style=&quot;font-size: 9px;&quot;&gt;extend&lt;/font&gt;" style="edgeLabel;html=1;align=center;verticalAlign=middle;resizable=0;points=[];" vertex="1" connectable="0" parent="QsYOaS02WV_Xm4vxUOQe-15">
          <mxGeometry x="0.2898" relative="1" as="geometry">
            <mxPoint y="7" as="offset" />
          </mxGeometry>
        </mxCell>
        <mxCell id="QsYOaS02WV_Xm4vxUOQe-11" value="Filtrar usuarios" style="rounded=1;whiteSpace=wrap;html=1;arcSize=50;" vertex="1" parent="1">
          <mxGeometry x="280" y="170" width="120" height="30" as="geometry" />
        </mxCell>
        <mxCell id="QsYOaS02WV_Xm4vxUOQe-12" value="Seleccionar usuario" style="rounded=1;whiteSpace=wrap;html=1;arcSize=50;" vertex="1" parent="1">
          <mxGeometry x="270" y="230" width="120" height="30" as="geometry" />
        </mxCell>
        <mxCell id="QsYOaS02WV_Xm4vxUOQe-19" style="edgeStyle=orthogonalEdgeStyle;rounded=0;orthogonalLoop=1;jettySize=auto;html=1;exitX=0;exitY=0.5;exitDx=0;exitDy=0;entryX=0.173;entryY=0.995;entryDx=0;entryDy=0;entryPerimeter=0;dashed=1;" edge="1" parent="1" source="QsYOaS02WV_Xm4vxUOQe-12" target="QsYOaS02WV_Xm4vxUOQe-2">
          <mxGeometry relative="1" as="geometry" />
        </mxCell>
        <mxCell id="QsYOaS02WV_Xm4vxUOQe-22" value="&lt;font style=&quot;font-size: 9px;&quot;&gt;extend&lt;/font&gt;" style="edgeLabel;html=1;align=center;verticalAlign=middle;resizable=0;points=[];" vertex="1" connectable="0" parent="QsYOaS02WV_Xm4vxUOQe-19">
          <mxGeometry x="-0.39" y="1" relative="1" as="geometry">
            <mxPoint y="-14" as="offset" />
          </mxGeometry>
        </mxCell>
        <mxCell id="QsYOaS02WV_Xm4vxUOQe-23" value="" style="endArrow=none;html=1;rounded=0;exitX=1;exitY=0.5;exitDx=0;exitDy=0;" edge="1" parent="1" source="QsYOaS02WV_Xm4vxUOQe-4" target="QsYOaS02WV_Xm4vxUOQe-6">
          <mxGeometry width="50" height="50" relative="1" as="geometry">
            <mxPoint x="400" y="290" as="sourcePoint" />
            <mxPoint x="450" y="240" as="targetPoint" />
          </mxGeometry>
        </mxCell>
        <mxCell id="QsYOaS02WV_Xm4vxUOQe-24" value="" style="endArrow=none;html=1;rounded=0;entryX=0;entryY=0.5;entryDx=0;entryDy=0;" edge="1" parent="1" source="QsYOaS02WV_Xm4vxUOQe-1" target="QsYOaS02WV_Xm4vxUOQe-2">
          <mxGeometry width="50" height="50" relative="1" as="geometry">
            <mxPoint x="400" y="290" as="sourcePoint" />
            <mxPoint x="450" y="240" as="targetPoint" />
          </mxGeometry>
        </mxCell>
        <mxCell id="QsYOaS02WV_Xm4vxUOQe-30" style="edgeStyle=orthogonalEdgeStyle;rounded=0;orthogonalLoop=1;jettySize=auto;html=1;exitX=0;exitY=0.5;exitDx=0;exitDy=0;entryX=1;entryY=0.5;entryDx=0;entryDy=0;dashed=1;" edge="1" parent="1" source="QsYOaS02WV_Xm4vxUOQe-25" target="QsYOaS02WV_Xm4vxUOQe-12">
          <mxGeometry relative="1" as="geometry" />
        </mxCell>
        <mxCell id="QsYOaS02WV_Xm4vxUOQe-33" value="&lt;font style=&quot;font-size: 9px;&quot;&gt;extend&lt;/font&gt;" style="edgeLabel;html=1;align=center;verticalAlign=middle;resizable=0;points=[];" vertex="1" connectable="0" parent="QsYOaS02WV_Xm4vxUOQe-30">
          <mxGeometry x="-0.1989" y="-2" relative="1" as="geometry">
            <mxPoint as="offset" />
          </mxGeometry>
        </mxCell>
        <mxCell id="QsYOaS02WV_Xm4vxUOQe-25" value="Ver detalle" style="rounded=1;whiteSpace=wrap;html=1;arcSize=50;" vertex="1" parent="1">
          <mxGeometry x="450" y="230" width="80" height="30" as="geometry" />
        </mxCell>
        <mxCell id="QsYOaS02WV_Xm4vxUOQe-26" value="Editar informacion" style="rounded=1;whiteSpace=wrap;html=1;arcSize=50;" vertex="1" parent="1">
          <mxGeometry x="250" y="300" width="120" height="30" as="geometry" />
        </mxCell>
        <mxCell id="QsYOaS02WV_Xm4vxUOQe-29" style="edgeStyle=orthogonalEdgeStyle;rounded=0;orthogonalLoop=1;jettySize=auto;html=1;exitX=0.25;exitY=0;exitDx=0;exitDy=0;entryX=0.75;entryY=1;entryDx=0;entryDy=0;dashed=1;" edge="1" parent="1" source="QsYOaS02WV_Xm4vxUOQe-27" target="QsYOaS02WV_Xm4vxUOQe-12">
          <mxGeometry relative="1" as="geometry" />
        </mxCell>
        <mxCell id="QsYOaS02WV_Xm4vxUOQe-32" value="&lt;font style=&quot;font-size: 9px;&quot;&gt;extend&lt;/font&gt;" style="edgeLabel;html=1;align=center;verticalAlign=middle;resizable=0;points=[];" vertex="1" connectable="0" parent="QsYOaS02WV_Xm4vxUOQe-29">
          <mxGeometry x="-0.0215" relative="1" as="geometry">
            <mxPoint as="offset" />
          </mxGeometry>
        </mxCell>
        <mxCell id="QsYOaS02WV_Xm4vxUOQe-27" value="Eliminar cuenta" style="rounded=1;whiteSpace=wrap;html=1;arcSize=50;" vertex="1" parent="1">
          <mxGeometry x="380" y="300" width="120" height="30" as="geometry" />
        </mxCell>
        <mxCell id="QsYOaS02WV_Xm4vxUOQe-28" style="edgeStyle=orthogonalEdgeStyle;rounded=0;orthogonalLoop=1;jettySize=auto;html=1;exitX=0.5;exitY=0;exitDx=0;exitDy=0;entryX=0.328;entryY=1.024;entryDx=0;entryDy=0;entryPerimeter=0;dashed=1;" edge="1" parent="1" source="QsYOaS02WV_Xm4vxUOQe-26" target="QsYOaS02WV_Xm4vxUOQe-12">
          <mxGeometry relative="1" as="geometry" />
        </mxCell>
        <mxCell id="QsYOaS02WV_Xm4vxUOQe-31" value="&lt;font style=&quot;font-size: 9px;&quot;&gt;extend&lt;/font&gt;" style="edgeLabel;html=1;align=center;verticalAlign=middle;resizable=0;points=[];" vertex="1" connectable="0" parent="QsYOaS02WV_Xm4vxUOQe-28">
          <mxGeometry x="-0.2307" y="-2" relative="1" as="geometry">
            <mxPoint as="offset" />
          </mxGeometry>
        </mxCell>
      </root>
    </mxGraphModel>
  </diagram>
</mxfile>
